<?xml version="1.0" encoding="UTF-8"?>
<svg id="LOGO_ICONE_PNG" data-name="LOGO ICONE PNG" xmlns="http://www.w3.org/2000/svg" viewBox="0 0 1080 1080">
  <defs>
    <style>
      .cls-1 {
        fill: #fff;
      }
    </style>
  </defs>
  <path id="LOGO_4" data-name="LOGO 4" class="cls-1" d="M516.44,810l96.32-108.34,58.27-63.28,13.22-28.44s-6.81-44.66-14.82-62.28c-8.01-17.62-35.04-55.87-35.04-55.87l68.29-38.25s19.22-9.21,21.43-12.02c2.2-2.8,10.39-24.21,10.39-24.21l-4.36-5.18s-24.26,4.21-33.79,4.36c-9.54.15-29.29-.15-29.29-.15l29.44-26.21s26.36-17.27,34.62-20.58l12.84-11.49s5.78-29.06,4.96-42.73c-.83-13.67-7.06-20.2-7.06-20.2l-17.72,1.05-55.34,11.79-18.85,3s-5.71-.53-10.81-6.23c-5.11-5.71-20.95-18.77-20.95-18.77,0,0-5.11-2.7-14.87-2.1l-57.6,5.63s-37.02,6.68-37.77,6.76-16.45,2.63-18.25,2.78c0,0-15.92-17.57-24.03-21.78l-19.67-7.28s-15.39-.23-29.14,25.15l-2.4,21.18,13.44,27.18-25.91,25.76-28.31,49.64s-20.43,44.16-31.84,88.61l-10.81,69.39,11.41,29.14,57.07,67.88,21.63,21.93-4.81-46.86,48.66,45.36,27.63,44.46,23.83,71.19Z"/>
</svg>