<?xml version="1.0" encoding="UTF-8"?>
<svg id="LOGOTIPO_HORIZONTAL_PNG" data-name="LOGOTIPO HORIZONTAL PNG" xmlns="http://www.w3.org/2000/svg" viewBox="140 410 800 260">
  <path id="LOGO_4" data-name="LOGO 4" d="M234.16,654.75l40.94-46.04,24.77-26.89,5.62-12.09s-2.89-18.98-6.3-26.47-14.89-23.74-14.89-23.74l29.02-16.26s8.17-3.91,9.11-5.11c.94-1.19,4.41-10.29,4.41-10.29l-1.85-2.2s-10.31,1.79-14.36,1.85c-4.05.06-12.45-.06-12.45-.06l12.51-11.14s11.2-7.34,14.71-8.74l5.46-4.88s2.46-12.35,2.11-18.16c-.35-5.81-3-8.59-3-8.59l-7.53.45-23.52,5.01-8.01,1.28s-2.43-.22-4.6-2.65c-2.17-2.43-8.9-7.98-8.9-7.98,0,0-2.17-1.15-6.32-.89l-24.48,2.39s-15.73,2.84-16.05,2.87-6.99,1.12-7.76,1.18c0,0-6.77-7.47-10.21-9.26l-8.36-3.09s-6.54-.1-12.38,10.69l-1.02,9,5.71,11.55-11.01,10.95-12.03,21.1s-8.68,18.77-13.53,37.66l-4.6,29.49,4.85,12.38,24.26,28.85,9.19,9.32-2.04-19.91,20.68,19.28,11.74,18.89,10.13,30.26Z"/>
  <g>
    <g>
      <path d="M406.88,621.75h-35.64v-55.57h34.82v9.48h-23.34v12.52h22.3v8.52h-22.3v15.56h24.15v9.48Z"/>
      <path d="M448.07,596.93h-6.08l-8.67,24.82h-12.3l10.89-29.41-10.08-26.15h12.37l7.85,21.78h5.93l7.85-21.78h12.37l-10.3,26.15,11.11,29.41h-12.37l-8.59-24.82Z"/>
      <path d="M496.61,603.74v18h-11.48v-55.57h22c12.82,0,20.52,7.56,20.52,18.75s-7.7,18.82-20.45,18.82h-10.6ZM496.61,575.59v18.75h9.34c7.33,0,10.3-4.37,10.3-9.41s-2.89-9.34-10.15-9.34h-9.48Z"/>
      <path d="M580.33,621.75h-35.64v-55.57h34.82v9.48h-23.34v12.52h22.3v8.52h-22.3v15.56h24.15v9.48Z"/>
      <path d="M621.83,602.04h-11.63v19.71h-11.48v-55.57h23.63c12.6,0,19.78,7.48,19.78,18.15,0,7.04-3.33,12.67-9.41,15.56l9.26,21.86h-12.08l-8.08-19.71ZM610.19,575.59v18h10.15c7.19,0,9.93-4.22,9.93-9.04s-2.67-8.97-9.78-8.97h-10.3Z"/>
      <path d="M660.36,621.75v-55.57h11.48v55.57h-11.48Z"/>
      <path d="M728.23,621.75h-35.64v-55.57h34.82v9.48h-23.34v12.52h22.3v8.52h-22.3v15.56h24.15v9.48Z"/>
      <path d="M746.6,621.75v-55.57h15.86l18.52,38.6h2.96v-38.6h10.74v55.57h-16.15l-18.23-38.6h-2.96v38.6h-10.74Z"/>
      <path d="M842.41,622.86c-16.97,0-29.27-12.52-29.27-28.97s12.3-28.75,29.27-28.75c14.23,0,25.64,9.04,28.3,22.52h-11.71c-2.52-6.97-8.37-11.78-16.6-11.78-10.37,0-17.63,7.71-17.63,18.15s7.26,18,17.63,18c8.37,0,14.45-5.04,16.74-12.3h11.56c-2.67,13.86-13.85,23.12-28.3,23.12Z"/>
      <path d="M924.65,621.75h-35.64v-55.57h34.82v9.48h-23.34v12.52h22.3v8.52h-22.3v15.56h24.15v9.48Z"/>
    </g>
    <g>
      <polygon points="371.24 545.29 403.66 545.29 402.29 479.49 403.66 458.99 371.24 458.99 372.42 528.13 371.24 545.29"/>
      <path d="M476.65,520.02c-5.51,0-14.12-.92-14.12-.92,0,0-7.11-1.64-9.62-3.08-2.51-1.44-4.34-3.29-5.49-5.55-1.15-2.26-1.73-8.32-1.73-8.32l1.85-8.94s3.12-4.17,5.67-5.49c2.55-1.31,9.68-2.71,9.68-2.71,0,0,8.49-.74,13.75-.74,1.73,0,3.68.1,5.86.31,2.18.21,6.66.8,6.66.8,0,0,4.48.72,6.66,1.17,2.18.45,4.13.92,5.86,1.42v-27c-1.32-.25-2.98-.6-4.99-1.05-2.02-.45-6.97-1.29-6.97-1.29,0,0-5.49-.76-8.57-1.05-3.08-.29-6.31-.43-9.68-.43-11.02,0-29.28,2.56-29.28,2.56,0,0-12.56,5.7-17.32,9.64-4.77,3.95-8.22,8.77-10.36,14.49-2.14,5.71-3.21,19.42-3.21,19.42,0,0,1.07,13.07,3.21,18.49,2.14,5.42,5.53,10.03,10.17,13.81,4.64,3.78,17.94,8.63,17.94,8.63,0,0,16.15,2.96,26.51,2.96,7.56,0,19.79-1.48,19.79-1.48,0,0,9.92-1.97,12.88-2.96v-27.25c-4.03,1.4-12.27,3.33-12.27,3.33,0,0-8.45,1.23-12.88,1.23Z"/>
      <polygon points="509.44 545.29 566.44 544.47 589.58 545.29 589.58 520.26 570.71 521.04 541.44 520.26 541.87 513.48 566.63 512.98 582.43 513.48 582.43 490.8 575.15 491.49 542.17 490.8 541.87 484.02 549.51 482.94 589.58 484.02 589.58 458.99 563.4 459.45 524.03 458.99 509.44 459.89 510.63 528.13 509.44 545.29"/>
      <path d="M708.96,513.11c-.78-2.3-3.88-6.1-3.88-6.1,0,0-4.15-3.22-7.03-4.38-2.88-1.15-6.37-1.81-10.48-1.97v-.37c3.2-.49,6.04-1.29,8.51-2.4,2.47-1.11,6.16-4.13,6.16-4.13,0,0,2.88-3.53,3.7-5.67.82-2.14,1.23-7.15,1.23-7.15l-1.85-9.25s-3.21-5.01-5.92-6.9c-2.71-1.89-10.48-4.32-10.48-4.32,0,0-9.49-1.48-15.66-1.48h-57.7l1.18,69.14-1.18,17.16h56.59c7.72,0,18.92-2.03,18.92-2.03,0,0,9.09-3.43,11.59-5.42,1.93-1.54,4.79-4.91,5.86-7.95,1.07-3.04,1.6-9.62,1.6-9.62,0,0-.39-4.85-1.17-7.15ZM647.78,481.68h16.61c2.14,0,5.3.31,5.3.31l3.33.99s1.42.99,1.79,1.6c.37.62.55,1.38.55,2.28,0,1.15-.21,2.1-.62,2.84-.41.74-2.03,1.73-2.03,1.73,0,0-2.2.7-3.76.86-1.56.17-3.49.25-5.79.25h-15.16l-.21-10.85ZM676.29,519.71c-.45.7-2.28,1.73-2.28,1.73,0,0-2.47.76-4.19.92-1.73.17-3.82.25-6.29.25h-15.53v-11.1h16.15c2.3,0,5.92.18,5.92.18,0,0,2.98.39,4.01.8,1.03.41,2.22,1.66,2.22,1.66,0,0,.68,1.66.68,2.9,0,1.07-.23,1.95-.68,2.65Z"/>
      <path d="M743.54,458.99l-4.39,14.24-22.45,54.89-7.56,17.16h31.93l4.95-12.95,7.36-.86,32.5.86,5,12.95h32.67l-7.56-17.16-22.45-54.89-4.02-14.24h-45.99ZM755.67,507.2l3.29-9.45,6.91-17.18,2.79,6.43,7.5,20.21-13.42-.9-7.08.9Z"/>
      <path d="M924.65,545.29l-22.5-27.33c1.85-.84,3.54-1.77,5.06-2.81,3.9-2.67,8.63-10.05,8.63-10.05,0,0,2.77-8.75,2.77-14.18s-2.4-14.06-2.4-14.06c0,0-4.15-7.35-7.64-9.99-3.49-2.63-13.38-5.92-13.38-5.92,0,0-11.96-1.97-19.6-1.97h-48.82l1.18,69.14-1.18,17.16h32.42v-22.19l2.36.46,10.64-.48,17.08,22.21h35.38ZM858.32,500.42l.24-12.02-.24-4.26h13.07c2.63,0,4.83.14,6.6.43,1.77.29,4.32,1.36,4.32,1.36,0,0,1.91,1.46,2.4,2.53.49,1.07.74,2.34.74,3.82,0,1.4-.74,3.64-.74,3.64,0,0-1.28,1.87-2.34,2.53-1.07.66-4.07,1.48-4.07,1.48,0,0-3.62.49-5.92.49h-14.05Z"/>
    </g>
  </g>
</svg>