<?xml version="1.0" encoding="UTF-8"?>
<svg id="LOGOTIPO_VERTICAL_PNG" data-name="LOGOTIPO VERTICAL PNG" xmlns="http://www.w3.org/2000/svg" viewBox="165 250 750 580">
  <defs>
    <style>
      .cls-1 {
        fill: #008cbc;
      }

      .cls-2 {
        fill: #fff;
      }

      .cls-3 {
        fill: #ed1d2f;
      }
    </style>
  </defs>
  <path id="LOGO_4" data-name="LOGO 4" class="cls-1" d="M526.97,564.88l53.26-59.9,32.22-34.99,7.31-15.72s-3.76-24.69-8.19-34.44-19.38-30.89-19.38-30.89l37.76-21.15s10.63-5.09,11.85-6.64c1.22-1.55,5.74-13.38,5.74-13.38l-2.41-2.86s-13.41,2.33-18.68,2.41c-5.27.08-16.19-.08-16.19-.08l16.28-14.49s14.57-9.55,19.14-11.38l7.1-6.35s3.2-16.07,2.74-23.63c-.46-7.56-3.9-11.17-3.9-11.17l-9.8.58-30.6,6.52-10.42,1.66s-3.16-.29-5.98-3.45c-2.82-3.16-11.58-10.38-11.58-10.38,0,0-2.82-1.49-8.22-1.16l-31.85,3.11s-20.47,3.7-20.89,3.74-9.09,1.45-10.09,1.54c0,0-8.8-9.72-13.29-12.04l-10.88-4.03s-8.51-.13-16.11,13.91l-1.33,11.71,7.43,15.03-14.32,14.24-15.65,27.45s-11.29,24.41-17.61,49l-5.98,38.37,6.31,16.11,31.56,37.54,11.96,12.12-2.66-25.91,26.91,25.08,15.28,24.58,13.18,39.36Z"/>
  <g>
    <path class="cls-3" d="M295.47,812.57h-36.15v-56.37h35.32v9.62h-23.67v12.7h22.62v8.64h-22.62v15.78h24.5v9.62Z"/>
    <path class="cls-3" d="M337.26,787.4h-6.16l-8.79,25.18h-12.48l11.05-29.84-10.22-26.53h12.55l7.97,22.1h6.01l7.97-22.1h12.55l-10.45,26.53,11.27,29.84h-12.55l-8.72-25.18Z"/>
    <path class="cls-3" d="M386.49,794.31v18.26h-11.65v-56.37h22.32c13,0,20.82,7.67,20.82,19.01s-7.81,19.09-20.74,19.09h-10.75ZM386.49,765.75v19.01h9.47c7.44,0,10.45-4.43,10.45-9.54s-2.93-9.47-10.3-9.47h-9.62Z"/>
    <path class="cls-3" d="M471.42,812.57h-36.15v-56.37h35.32v9.62h-23.67v12.7h22.62v8.64h-22.62v15.78h24.5v9.62Z"/>
    <path class="cls-3" d="M513.51,792.58h-11.8v19.99h-11.65v-56.37h23.97c12.78,0,20.07,7.59,20.07,18.41,0,7.14-3.38,12.85-9.54,15.78l9.39,22.17h-12.25l-8.19-19.99ZM501.71,765.75v18.26h10.3c7.29,0,10.07-4.28,10.07-9.17s-2.71-9.09-9.92-9.09h-10.45Z"/>
    <path class="cls-3" d="M552.59,812.57v-56.37h11.65v56.37h-11.65Z"/>
    <path class="cls-3" d="M621.43,812.57h-36.15v-56.37h35.32v9.62h-23.68v12.7h22.62v8.64h-22.62v15.78h24.5v9.62Z"/>
    <path class="cls-3" d="M640.07,812.57v-56.37h16.08l18.79,39.16h3.01v-39.16h10.9v56.37h-16.38l-18.49-39.16h-3.01v39.16h-10.9Z"/>
    <path class="cls-3" d="M737.25,813.7c-17.21,0-29.69-12.7-29.69-29.39s12.48-29.16,29.69-29.16c14.43,0,26,9.17,28.71,22.85h-11.87c-2.56-7.07-8.49-11.95-16.83-11.95-10.52,0-17.89,7.82-17.89,18.41s7.36,18.26,17.89,18.26c8.49,0,14.65-5.11,16.98-12.48h11.72c-2.7,14.05-14.05,23.45-28.71,23.45Z"/>
    <path class="cls-3" d="M820.68,812.57h-36.15v-56.37h35.32v9.62h-23.67v12.7h22.62v8.64h-22.62v15.78h24.5v9.62Z"/>
  </g>
  <g>
    <polygon class="cls-2" points="180 729.33 222.18 729.33 220.41 643.72 222.18 617.05 180 617.05 181.54 707 180 729.33"/>
    <path class="cls-2" d="M317.14,696.45c-7.17,0-18.37-1.2-18.37-1.2,0,0-9.25-2.14-12.51-4.01-3.26-1.87-5.64-4.28-7.14-7.22-1.5-2.94-2.25-10.83-2.25-10.83l2.41-11.63s4.06-5.43,7.38-7.14c3.31-1.71,12.59-3.53,12.59-3.53,0,0,11.04-.96,17.89-.96,2.25,0,4.78.14,7.62.4,2.83.27,8.66,1.04,8.66,1.04,0,0,5.83.94,8.66,1.52,2.83.59,5.37,1.2,7.62,1.84v-35.13c-1.71-.32-3.88-.77-6.5-1.36-2.62-.59-9.06-1.68-9.06-1.68,0,0-7.14-.99-11.15-1.36-4.01-.37-8.21-.56-12.59-.56-14.33,0-38.1,3.33-38.1,3.33,0,0-16.34,7.42-22.54,12.55-6.2,5.13-10.69,11.42-13.47,18.85-2.78,7.43-4.17,25.26-4.17,25.26,0,0,1.39,17,4.17,24.06,2.78,7.06,7.19,13.05,13.23,17.96,6.04,4.92,23.34,11.23,23.34,11.23,0,0,21.01,3.85,34.49,3.85,9.84,0,25.74-1.93,25.74-1.93,0,0,12.91-2.57,16.76-3.85v-35.45c-5.24,1.82-15.96,4.33-15.96,4.33,0,0-10.99,1.6-16.76,1.6Z"/>
    <polygon class="cls-2" points="359.8 729.33 433.96 728.26 464.06 729.33 464.06 696.77 439.51 697.77 401.44 696.77 401.99 687.95 434.21 687.29 454.76 687.95 454.76 658.43 445.29 659.33 402.38 658.43 401.99 649.61 411.93 648.2 464.06 649.61 464.06 617.05 430.01 617.64 378.78 617.05 359.8 618.23 361.35 707 359.8 729.33"/>
    <path class="cls-2" d="M619.38,687.47c-1.02-2.99-5.05-7.94-5.05-7.94,0,0-5.4-4.2-9.14-5.69-3.74-1.5-8.29-2.35-13.63-2.57v-.48c4.17-.64,7.86-1.68,11.07-3.13,3.21-1.44,8.02-5.37,8.02-5.37,0,0,3.74-4.6,4.81-7.38,1.07-2.78,1.6-9.3,1.6-9.3l-2.41-12.03s-4.17-6.52-7.7-8.98c-3.53-2.46-13.63-5.61-13.63-5.61,0,0-12.35-1.93-20.37-1.93h-75.07l1.54,89.95-1.54,22.33h73.62c10.05,0,24.62-2.65,24.62-2.65,0,0,11.82-4.47,15.08-7.06,2.51-2,6.23-6.39,7.62-10.35,1.39-3.95,2.08-12.51,2.08-12.51,0,0-.51-6.31-1.52-9.3ZM539.79,646.56h21.61c2.78,0,6.9.4,6.9.4l4.33,1.28s1.84,1.28,2.33,2.08c.48.8.72,1.79.72,2.97,0,1.5-.27,2.73-.8,3.69-.54.96-2.65,2.25-2.65,2.25,0,0-2.86.91-4.89,1.12-2.03.22-4.55.32-7.54.32h-19.73l-.28-14.11ZM576.88,696.05c-.59.91-2.97,2.25-2.97,2.25,0,0-3.21.99-5.45,1.2-2.25.22-4.97.32-8.18.32h-20.21v-14.44h21.01c2.99,0,7.7.24,7.7.24,0,0,3.87.51,5.21,1.04,1.34.54,2.89,2.17,2.89,2.17,0,0,.88,2.17.88,3.77,0,1.39-.29,2.54-.88,3.45Z"/>
    <path class="cls-2" d="M664.38,617.05l-5.72,18.53-29.21,71.42-9.83,22.33h41.54l6.43-16.84,9.58-1.12,42.28,1.12,6.51,16.84h42.51l-9.83-22.33-29.21-71.42-5.23-18.53h-59.83ZM680.15,679.77l4.28-12.3,8.99-22.35,3.63,8.36,9.76,26.29-17.46-1.17-9.21,1.17Z"/>
    <path class="cls-2" d="M900,729.33l-29.28-35.56c2.4-1.09,4.6-2.3,6.58-3.66,5.08-3.47,11.23-13.07,11.23-13.07,0,0,3.61-11.39,3.61-18.45s-3.13-18.29-3.13-18.29c0,0-5.4-9.57-9.94-12.99-4.55-3.42-17.4-7.7-17.4-7.7,0,0-15.56-2.57-25.5-2.57h-63.52l1.54,89.95-1.54,22.33h42.18v-28.87l3.08.6,13.84-.62,22.23,28.89h46.03ZM813.71,670.95l.31-15.64-.31-5.54h17c3.42,0,6.28.19,8.58.56,2.3.38,5.61,1.76,5.61,1.76,0,0,2.49,1.9,3.13,3.29.64,1.39.96,3.05.96,4.97,0,1.82-.96,4.73-.96,4.73,0,0-1.66,2.43-3.05,3.29-1.39.86-5.29,1.92-5.29,1.92,0,0-4.71.64-7.7.64h-18.28Z"/>
  </g>
</svg>